<svg xmlns="http://www.w3.org/2000/svg" width="24" height="24" viewBox="0 0 24 24">
  <g id="Menu" transform="translate(-1630 -70)">
    <rect id="Rectangle_2234" data-name="Rectangle 2234" width="24" height="24" transform="translate(1630 70)" fill="#fff" opacity="0"/>
    <g id="ico" transform="translate(1652 89.75) rotate(180)" fill="#fff">
      <path d="M 12.738600730896 15.74980068206787 L 0.861300528049469 15.74980068206787 C 0.2485305517911911 15.74980068206787 -0.2499994486570358 15.25127029418945 -0.2499994486570358 14.63850021362305 C -0.2499994486570358 14.02622032165527 0.2485305517911911 13.52810001373291 0.861300528049469 13.52810001373291 L 12.738600730896 13.52810001373291 C 13.3513708114624 13.52810001373291 13.8499002456665 14.02622032165527 13.8499002456665 14.63850021362305 C 13.8499002456665 15.25127029418945 13.3513708114624 15.74980068206787 12.738600730896 15.74980068206787 Z M 16.1387996673584 8.861200332641602 L 0.861300528049469 8.861200332641602 C 0.2485305517911911 8.861200332641602 -0.2499994486570358 8.362669944763184 -0.2499994486570358 7.749900341033936 C -0.2499994486570358 7.137130260467529 0.2485305517911911 6.63860034942627 0.861300528049469 6.63860034942627 L 16.1387996673584 6.63860034942627 C 16.7515697479248 6.63860034942627 17.25010108947754 7.137130260467529 17.25010108947754 7.749900341033936 C 17.25010108947754 8.362669944763184 16.7515697479248 8.861200332641602 16.1387996673584 8.861200332641602 Z M 12.738600730896 1.972600340843201 L 0.861300528049469 1.972600340843201 C 0.2485305517911911 1.972600340843201 -0.2499994486570358 1.474070310592651 -0.2499994486570358 0.8613003492355347 C -0.2499994486570358 0.2485303431749344 0.2485305517911911 -0.2499996572732925 0.861300528049469 -0.2499996572732925 L 12.738600730896 -0.2499996572732925 C 13.3513708114624 -0.2499996572732925 13.8499002456665 0.2485303431749344 13.8499002456665 0.8613003492355347 C 13.8499002456665 1.474070310592651 13.3513708114624 1.972600340843201 12.738600730896 1.972600340843201 Z" stroke="none"/>
      <path d="M 12.738600730896 15.49980068206787 C 13.21470069885254 15.49980068206787 13.5999002456665 15.11460018157959 13.5999002456665 14.63850021362305 C 13.5999002456665 14.16330051422119 13.21470069885254 13.77810001373291 12.738600730896 13.77810001373291 L 0.861300528049469 13.77810001373291 C 0.3852005302906036 13.77810001373291 5.447387820822769e-07 14.16330051422119 5.447387820822769e-07 14.63850021362305 C 5.447387820822769e-07 15.11460018157959 0.3852005302906036 15.49980068206787 0.861300528049469 15.49980068206787 L 12.738600730896 15.49980068206787 M 16.1387996673584 8.611200332641602 C 16.61400032043457 8.611200332641602 17.00010108947754 8.226000785827637 17.00010108947754 7.749900341033936 C 17.00010108947754 7.274700164794922 16.61400032043457 6.88860034942627 16.1387996673584 6.88860034942627 L 0.861300528049469 6.88860034942627 C 0.3852005302906036 6.88860034942627 5.447387820822769e-07 7.274700164794922 5.447387820822769e-07 7.749900341033936 C 5.447387820822769e-07 8.226000785827637 0.3852005302906036 8.611200332641602 0.861300528049469 8.611200332641602 L 16.1387996673584 8.611200332641602 M 12.738600730896 1.722600340843201 C 13.21470069885254 1.722600340843201 13.5999002456665 1.336500287055969 13.5999002456665 0.8613003492355347 C 13.5999002456665 0.3852003514766693 13.21470069885254 3.410339388665307e-07 12.738600730896 3.410339388665307e-07 L 0.861300528049469 3.410339388665307e-07 C 0.3852005302906036 3.410339388665307e-07 5.447387820822769e-07 0.3852003514766693 5.447387820822769e-07 0.8613003492355347 C 5.447387820822769e-07 1.336500287055969 0.3852005302906036 1.722600340843201 0.861300528049469 1.722600340843201 L 12.738600730896 1.722600340843201 M 12.738600730896 15.99980068206787 L 0.861300528049469 15.99980068206787 C 0.1106805428862572 15.99980068206787 -0.499999463558197 15.38912010192871 -0.499999463558197 14.63850021362305 C -0.499999463558197 13.88837051391602 0.1106805428862572 13.27810001373291 0.861300528049469 13.27810001373291 L 12.738600730896 13.27810001373291 C 13.48922061920166 13.27810001373291 14.0999002456665 13.88837051391602 14.0999002456665 14.63850021362305 C 14.0999002456665 15.38912010192871 13.48922061920166 15.99980068206787 12.738600730896 15.99980068206787 Z M 16.1387996673584 9.111200332641602 L 0.861300528049469 9.111200332641602 C 0.1106805428862572 9.111200332641602 -0.499999463558197 8.500520706176758 -0.499999463558197 7.749900341033936 C -0.499999463558197 6.999280452728271 0.1106805428862572 6.38860034942627 0.861300528049469 6.38860034942627 L 16.1387996673584 6.38860034942627 C 16.8894214630127 6.38860034942627 17.50010108947754 6.999280452728271 17.50010108947754 7.749900341033936 C 17.50010108947754 8.500520706176758 16.8894214630127 9.111200332641602 16.1387996673584 9.111200332641602 Z M 12.738600730896 2.22260046005249 L 0.861300528049469 2.22260046005249 C 0.1106805428862572 2.22260046005249 -0.499999463558197 1.611920356750488 -0.499999463558197 0.8613003492355347 C -0.499999463558197 0.1106803417205811 0.1106805428862572 -0.4999996721744537 0.861300528049469 -0.4999996721744537 L 12.738600730896 -0.4999996721744537 C 13.48922061920166 -0.4999996721744537 14.0999002456665 0.1106803417205811 14.0999002456665 0.8613003492355347 C 14.0999002456665 1.611920356750488 13.48922061920166 2.22260046005249 12.738600730896 2.22260046005249 Z" stroke="none" fill="#fff"/>
    </g>
  </g>
</svg>
