<svg id="Capa_1" enable-background="new 0 0 512 512" height="512" viewBox="0 0 512 512" width="512" xmlns="http://www.w3.org/2000/svg"><g><path d="m436.193 169.626c-5.507-4.735-11.04-9.258-16.589-13.59l-64.701 64.701c3.942 11.027 6.097 22.898 6.097 35.263 0 57.897-47.103 105-105 105-12.365 0-24.236-2.155-35.263-6.098l-48.558 48.558c28.356 11.632 56.481 17.54 83.821 17.54 32.657 0 66.432-8.396 100.384-24.955 26.662-13.005 53.514-31.063 79.809-53.671 44.455-38.226 71.841-76.024 72.984-77.615 3.765-5.232 3.765-12.285 0-17.518-1.144-1.591-28.529-39.389-72.984-77.615z"/><path d="m256 331c41.355 0 75-33.645 75-75 0-3.598-.27-7.134-.763-10.598l-84.835 84.835c3.465.493 7 .763 10.598.763z"/><path d="m507.607 4.394c-5.857-5.857-15.355-5.857-21.213 0l-117.848 117.848c-4.056-2.208-8.111-4.311-12.162-6.286-33.952-16.56-67.727-24.956-100.384-24.956s-66.432 8.396-100.384 24.955c-26.662 13.005-53.514 31.063-79.809 53.671-44.454 38.226-71.84 76.024-72.984 77.615-3.765 5.232-3.765 12.285 0 17.518 1.144 1.591 28.529 39.39 72.984 77.615 13.623 11.713 27.396 22.192 41.214 31.391l-112.627 112.629c-5.858 5.857-5.858 15.355 0 21.213 2.929 2.928 6.767 4.393 10.606 4.393s7.678-1.465 10.606-4.394l482-482c5.859-5.857 5.859-15.355.001-21.212zm-356.607 251.606c0-57.897 47.103-105 105-105 23.551 0 45.315 7.794 62.85 20.938l-21.52 21.52c-11.859-7.864-26.065-12.458-41.33-12.458-41.355 0-75 33.645-75 75 0 15.264 4.594 29.47 12.458 41.33l-21.52 21.52c-13.144-17.535-20.938-39.299-20.938-62.85z"/></g></svg>